<?xml version="1.0" encoding="utf-8"?>
<!-- Uploaded to: SVG Repo, www.svgrepo.com, Generator: SVG Repo Mixer Tools -->
<svg width="800px" height="800px" viewBox="0 0 48 48" fill="none" xmlns="http://www.w3.org/2000/svg">
<g id="video cam">
<g id="video cam_2">
<path id="Combined Shape" fill-rule="evenodd" clip-rule="evenodd" d="M11 12H25C25.5526 12 26 12.4471 26 13V16H7C5.34318 16 4 17.3423 4 19V35C4 36.6577 5.34318 38 7 38H31C32.6568 38 34 36.6577 34 35V21.9454L42.0001 18.5165L42.0002 35.4823L37.4139 33.5182C36.9062 33.3007 36.3184 33.536 36.101 34.0437C35.8835 34.5514 36.1188 35.1392 36.6265 35.3566L41.2125 37.3206C42.5309 37.888 44.0002 36.92 44.0002 35.4834V18.5154C44.0002 17.0805 42.5307 16.111 41.2109 16.6788L34 19.7695V19C34 17.3423 32.6568 16 31 16H28V13C28 11.3423 26.6568 10 25 10H11C10.4477 10 10 10.4477 10 11C10 11.5523 10.4477 12 11 12ZM7 18H26V20C26 20.5523 26.4477 21 27 21C27.5523 21 28 20.5523 28 20V18H31C31.5526 18 32 18.4471 32 19V35C32 35.5529 31.5526 36 31 36H7C6.44744 36 6 35.5529 6 35V19C6 18.4471 6.44744 18 7 18ZM12 23C12 22.4471 11.5526 22 11 22C10.4474 22 10 22.4471 10 23C10 23.5529 10.4474 24 11 24C11.5526 24 12 23.5529 12 23ZM11 26C12.6568 26 14 24.6577 14 23C14 21.3423 12.6568 20 11 20C9.34318 20 8 21.3423 8 23C8 24.6577 9.34318 26 11 26Z" fill="#000000"/>
</g>
</g>
</svg>